<?xml version="1.0" encoding="UTF-8"?>
<svg id="Capa_2" data-name="Capa 2" xmlns="http://www.w3.org/2000/svg" viewBox="0 0 227.46 33.59">
  <defs>
    <style>
      .cls-1 {
        font-size: 9.89px;
      }

      .cls-2 {
        fill: #88959e;
        font-family: Beer, Beer;
      }

      .cls-3 {
        fill: #ffa100;
        fill-rule: evenodd;
        stroke-width: 0px;
      }

      .cls-4, .cls-5 {
        font-size: 23.14px;
      }

      .cls-5 {
        letter-spacing: 0em;
      }
    </style>
  </defs>
  <g id="home">
    <g id="navbar">
      <g>
        <path class="cls-3" d="M212.79,0c.08,0,.37.11.39.15.03.03.02.26,0,.34-.01.06,0,.17,0,.24-.02.06-.06.13-.08.2v.32c-.02.1-.04.19-.07.29-.03.1,0,.24-.03.34-.01.05-.05.09-.07.14,0,.15,0,.29,0,.44-.01.05-.06.11-.07.15-.03.11-.02.23-.05.33v.55s-.05.07-.07.1c0,.08-.01.17-.02.25-.03.13-.11.3-.15.44-.03.11,0,.21-.05.31-.01.04-.06.07-.07.11,0,.07-.01.13-.02.2-.03.07-.1.18-.14.25-.03.05-.04.12-.07.17-.03.04-.1.05-.14.09-.02.03-.02.07-.05.1-.08.07-.18.11-.27.17-.05.04-.19.17-.29.11-.21-.07-.36-.5-.29-.82.03-.12-.05-.2-.03-.3.02-.08.06-.14.03-.26-.02-.09.06-.12.08-.2,0-.06,0-.12.01-.18.01-.02.06-.03.07-.05.03-.03.04-.17.02-.24-.02-.07-.09-.12-.11-.2-.02-.08,0-.32.02-.39,0-.2-.01-.41-.02-.61.02-.08.08-.15.09-.21.02-.09-.09-.12-.06-.24.01-.04.05-.08.06-.12,0-.08-.02-.16-.03-.24,0-.14.02-.36.04-.49,0-.16,0-.31,0-.47.01-.04.06-.1.06-.14,0-.07-.06-.12-.06-.21.04-.02.11-.02.16-.05.08-.04.16-.12.26-.14.11-.03.21-.04.31-.06.06,0,.12,0,.18,0,.06-.01.11-.05.15-.07.16-.06.25.02.37-.1M218.06,1.84c.19,0,.57.04.68.12.04.03.12.14.17.19,0,.09-.03.11-.03.21.07.05.18.11.21.19.03.08,0,.21.01.31.02.11.05.27.07.37.03.13-.04.38,0,.54.05.2-.04.4-.08.57,0,.07,0,.15,0,.22,0,.03-.04.07-.05.1,0,.05,0,.1-.01.15-.02.06-.08.11-.1.17-.05.1-.05.19-.1.28-.06.09-.16.19-.23.27-.03.02-.05.05-.08.07-.01.07-.02.13-.03.2-.02.03-.07.03-.09.06-.02.03-.05.06-.07.09-.09.07-.17.13-.26.2-.04.04-.08.1-.13.13-.04.03-.07.02-.12.05-.15.09-.18.25-.45.25-.04-.04-.09-.05-.11-.12-.02-.05,0-.08-.02-.12-.03-.05-.07-.04-.08-.12.04-.05.01-.29.04-.41.01-.04.06-.09.07-.13.03-.08-.02-.15-.03-.21,0-.12.02-.22.04-.32,0-.07,0-.13,0-.2.03-.11.07-.16.06-.29-.04-.03-.08-.05-.09-.12.05-.05.11-.1.12-.19-.05-.06-.08-.14-.08-.25.06-.06.14-.19.07-.31-.02-.04-.1-.07-.08-.14.02-.08.1-.06.1-.2-.03-.04-.06-.07-.06-.14.06-.04.1-.08.14-.13-.03-.14-.12-.09-.12-.25.07-.1-.02-.17-.05-.22,0-.07-.02-.13-.02-.2-.07-.14-.19-.15-.14-.36.14-.08.31-.11.47-.18.04-.02.08-.07.13-.08.13-.04.27.02.37-.05M204.7,4.1c.13,0,.26,0,.4,0,.05.01.07.08.11.1.07.04.14.04.2.08.04.03.08.09.12.12.18.13.35.27.45.48.04.09.16.16.19.26.03.09-.03.2-.01.31.07.02.27.18.3.24.02.06,0,.11.02.15.02.04.05.03.06.09-.19.17.04.19.15.24.09.15.16.3.27.43.06.07.16.1.21.17.04.05.13.13.09.24-.01.05-.07.08-.09.12-.04.07-.05.16-.12.2-.03.02-.06.02-.08.04-.07-.02-.13-.05-.19-.07s-.11,0-.15-.02c-.06-.04-.1-.12-.17-.15-.06-.03-.11-.02-.15-.05-.05-.03-.1-.08-.15-.12-.03-.02-.06-.01-.08-.03-.03-.05-.03-.13-.06-.18-.08-.1-.22-.18-.28-.29-.03-.04,0-.09-.03-.14-.03-.02-.06-.05-.09-.07-.06-.1-.1-.26-.11-.41-.07-.02-.09-.03-.19-.02-.07-.09-.15-.22-.2-.33-.01-.04-.02-.09-.04-.13-.03-.05-.07-.09-.09-.14-.02-.05,0-.09-.03-.15-.03-.08-.12-.21-.16-.29l-.04-.18c-.06-.13-.16-.25-.17-.42.03-.03.06-.04.1-.07M223.8,5.52s.05,0,.06.01c.21.07.18.48.13.72,0,.09.01.18.01.27-.01.05-.07.1-.1.14-.11.15-.29.26-.4.42-.25.34-.57.66-.9.91-.11.08-.18.22-.29.3-.12.09-.24.17-.36.26-.06.04-.12.12-.19.15-.02,0-.04,0-.06.01-.09.06-.17.15-.27.2-.12.06-.26.16-.38.2l-.22.04c-.09.04-.33.16-.48.12-.09-.02-.12-.1-.18-.15-.02-.24.01-.21.09-.36.03-.06.03-.12.07-.17.12-.13.2-.13.2-.39.14-.11.18-.27.29-.4.04-.05.13-.06.18-.11.02-.06.04-.12.06-.18.05-.08.17-.11.22-.19.04-.06.05-.14.09-.2.08-.07.16-.14.23-.21.03-.05.04-.09.07-.13.01-.02.03-.01.05-.02.04-.03.06-.09.09-.13.03-.02.05-.04.08-.06.05-.06.06-.12.12-.17.03-.02.07-.02.09-.05.06-.06.07-.16.13-.23.05-.06.14-.1.2-.15,0-.08-.04-.17-.02-.2.02-.1.2-.24.33-.24.07.06.17.08.27.04.02,0,.05-.04.09-.02.03,0,.07.05.09.06.09.03.16-.03.21-.05.18-.04.26.08.39-.05M199.33,7.07c.44-.01.93.11,1.29.2.07,0,.13,0,.2.01.08.02.18.04.27.06.04,0,.09,0,.13,0,.1.03.17.1.27.13.08,0,.16,0,.24,0,.08.02.22.04.31.08.03.01.06.05.09.06.1.03.18-.04.27,0,.06.02.1.09.16.12.07.03.12.03.2.06.08.03.18.09.26.13.05.01.1.02.15.03.1.05.21.15.31.21.07.04.2.02.27.07.02.02.03.05.05.07.05.07.14.12.2.19.03.04.02.09.05.14.02.05.1.12.14.15,0,.04,0,.09,0,.13-.01.02-.05.05-.06.07-.06.14-.09.55-.31.51-.24-.05-.45-.18-.65-.25-.07-.01-.13-.03-.2-.05-.06-.03-.08-.12-.14-.15-.09-.04-.19-.03-.27-.07-.24-.1-.46-.21-.72-.3-.04-.02-.07-.06-.11-.08-.04-.02-.09-.01-.13-.03-.08-.04-.17-.11-.25-.15-.1-.06-.2-.07-.31-.13-.27-.14-.54-.32-.79-.48-.08-.05-.17-.07-.25-.12-.14-.09-.3-.19-.45-.27-.09-.05-.27-.09-.31-.19-.02-.03-.02-.04-.01-.07.04-.03.08-.05.12-.08M211.76,7.2c.18,0,.33.06.49.09.14.03.32-.01.42-.04.13-.03.19.07.32.03.03,0,.07-.04.09-.05.08-.02.16.03.21.05h.25c.08,0,.15.07.22.09.11.03.17-.04.22-.06,0,0,.4.04.43.05.08.02.16.08.24.1.1.03.22.03.32.07.04.02.07.07.12.08.1.03.2-.02.28.02.05.02.09.1.14.12.08.03.15-.04.25-.01.11.03.12.18.23.21.08.03.14-.05.21-.03.12.03.2.18.32.22.13.04.22-.02.32.04.13.07.19.24.38.24.03-.03.08-.02.14-.02.02.03.06.05.07.07.03.05.02.09.06.13.06.04.14,0,.2.03.04.02.09.08.13.1.06.04.15.05.2.11.04.04.05.09.1.12.05.03.09.01.15.03.05.02.11.05.16.08.08.05.09.21.18.25.03.02.06,0,.09.02.06.02.09.09.14.12.05.03.09.02.13.05.06.04.07.14.13.19.06.05.15.06.2.12.02.02.02.05.04.06.07.05.14.1.2.16.01.02,0,.04.02.06.07.08.17.13.23.21.06.09.11.18.18.27.04.05.1.1.14.15.04.05.05.11.09.16.04.05.11.11.14.16.02.03,0,.06.02.08.03.04.11.06.13.11,0,.07.02.13.02.2.02.06.1.1.13.15.03.05.09.15.11.2,0,.04,0,.08.01.12.01.03.05.06.06.08.02.05-.02.11-.02.14,0,.03.04.3.05.33.03.07.25.26.32.33,0,.12-.09.18-.06.29.02.06.08.08.11.13.03.06,0,.15.01.22,0,.02.03.07.04.08,0,.05,0,.1,0,.15,0,.02.05.05.06.08,0,.02,0,.26,0,.28-.03.05-.14.09-.1.18.02.09.05.06.09.11.04.04,0,.15.01.21.04.1.1.04.11.22-.06.06-.12.21-.08.33.02.05.1.11.07.21-.02.07-.08.13-.09.22,0,.05.03.13.04.17.01.06-.01.1-.02.14,0,.04,0,.09.01.12.01.06-.01.1-.02.14-.04.03-.15.07-.16.12-.07.11.09.13.12.19.04.07-.07.16-.04.27.03.19-.02.17-.06.31,0,.09,0,.19,0,.28,0,.04,0,.11-.02.17-.01.05-.05.11-.07.15-.01.09-.02.19-.03.28-.02.05-.08.1-.09.16,0,.04,0,.09,0,.13-.04.13-.11.3-.15.42-.03.1-.01.19-.05.28-.01.04-.06.09-.07.13,0,.06-.02.12-.02.18-.05.12-.12.3-.17.43l-.05.21c-.03.07-.11.19-.14.26-.02.07,0,.14-.03.2-.03.07-.11.12-.14.2-.05.13-.06.22-.13.32-.02.03-.07.05-.08.08,0,.04-.01.08-.02.12-.05.1-.15.2-.2.3-.02.03,0,.06-.02.09-.04.07-.12.13-.15.2-.13.24-.27.47-.42.7-.06.09-.16.17-.22.26-.03.05-.04.09-.07.14-.04.07-.13.12-.17.19-.03.04-.03.1-.07.14-.04.04-.1.05-.13.08-.02.02,0,.06-.02.08-.06.1-.18.17-.24.26-.23.31-.5.58-.78.84-.04.04-.05.09-.08.13-.03.03-.07.03-.11.06-.02.02-.02.05-.04.07-.05.07-.16.11-.22.17-.02.02-.02.05-.05.07-.11.08-.23.13-.35.21-.14.09-.22.26-.36.36-.11.07-.24.1-.35.18-.02.01-.04.05-.07.06-.03,0-.05,0-.08.01-.3.15-.61.33-.92.47-.06.03-.13.02-.2.05-.11.04-.23.11-.34.15-.07.02-.14.03-.21.05-.05.02-.1.07-.15.08-.06,0-.11,0-.16.01-.34.14-.77.2-1.15.29-.25.06-.55,0-.8.05-.16.03-.35-.01-.52.03-.09.02-.39.04-.49.01-.08-.02-.13-.06-.21-.08-.12-.03-.18.07-.31.04-.11-.03-.25-.08-.35-.1-.07,0-.14,0-.21,0-.26-.06-.58-.06-.84-.12-.08-.02-.16-.07-.24-.09l-.14-.02s-.02-.03-.04-.05c-.07-.05-.15-.11-.22-.14-.1-.04-.19-.05-.29-.09-.23-.09-.49-.38-.63-.57-.08-.11-.26-.19-.32-.32-.01-.09-.03-.19-.04-.28-.05-.04-.1-.09-.14-.13-.05-.08-.06-.25-.09-.34-.03-.11.12-.39.15-.46.06-.15.15-.2.23-.31.02-.02.01-.05.03-.07.05-.01.1-.02.15-.04.06-.02.11-.11.21-.08.06.02.14.06.21.08.11.03.23-.04.33,0,.14.06.17.19.27.26.09.06.17.09.25.16.62,0,1.39.12,2-.03.13-.03.24,0,.36-.04.08-.02.18-.06.26-.09.04,0,.09,0,.13-.01.04-.01.09-.06.13-.07.07-.01.13-.02.2-.04.03-.02.07-.06.11-.07.05-.01.11-.02.16-.04.06-.03.13-.08.2-.11.11-.01.21-.02.32-.04.07-.03.09-.1.15-.14.05-.04.11-.06.16-.09.04-.03.07-.09.1-.11.04-.02.08,0,.13-.02.03-.01.06-.05.08-.07.07-.05.16-.05.23-.1.13-.09.22-.24.35-.32.01,0,.02,0,.03,0,.03-.02.06-.07.1-.08.03,0,.05,0,.08-.01.04-.02.07-.07.11-.08.08-.03.15-.03.2-.08.02-.02.02-.05.05-.07.04-.03.09-.05.12-.09,0-.02,0-.03.01-.05.03-.04.09-.05.13-.08.05-.04.07-.11.12-.15.03-.03.08-.05.12-.08.13-.1.25-.23.35-.37.07-.1.23-.12.29-.21.01-.04.02-.08.03-.12.07-.1.18-.18.25-.28.03-.05.04-.1.07-.14.04-.06.12-.11.15-.17.06-.1.07-.2.12-.29.02-.04.06-.08.08-.11.01-.04.02-.08.04-.12.02-.02.04-.03.06-.05.03-.05.02-.11.05-.15.24-.38.48-.77.72-1.14.03-.04.02-.09.05-.14.03-.06.11-.1.14-.15.03-.09.07-.18.1-.27.03-.06.1-.11.13-.18.01-.06.02-.12.03-.18.05-.11.14-.25.19-.37,0-.04,0-.08.01-.12.02-.06.06-.12.08-.18,0-.05,0-.1.01-.14.02-.06.07-.11.08-.18,0-.05,0-.1,0-.14.02-.06.07-.13.09-.19.03-.08,0-.16.03-.26.02-.06.06-.11.08-.16,0-.09.01-.18.02-.27.02-.06.06-.11.08-.18.05-.21.04-.61,0-.81,0-.08,0-.17-.01-.25-.02-.09-.04-.29-.02-.4.01-.05.01-.13.03-.19.03-.08.08-.12.09-.23-.07-.06-.19-.13-.2-.25-.11-.19.18-.37.1-.61-.03-.09-.08-.19-.11-.27-.02-.07,0-.12-.02-.18-.02-.04-.07-.09-.08-.14,0-.05-.02-.1-.02-.15-.02-.05-.08-.1-.1-.15,0-.06,0-.11-.01-.17-.01-.03-.06-.06-.07-.09-.05-.1-.04-.2-.1-.29-.03-.05-.09-.08-.11-.14,0-.09,0-.17,0-.26,0,0-.02,0-.02-.01-.03-.03-.12-.03-.18-.03-.05-.13-.15-.2-.23-.29-.03-.04-.03-.09-.06-.13-.03-.04-.08-.06-.12-.09-.02-.02-.03-.06-.05-.07-.04-.02-.08-.02-.12-.05-.04-.03-.07-.08-.11-.12-.02,0-.03,0-.05-.01-.05-.05-.14-.21-.18-.23-.05-.01-.1-.02-.15-.03-.04-.02-.05-.08-.08-.11-.05,0-.09-.02-.14-.02-.02-.02-.03-.04-.05-.06-.04-.02-.08-.02-.12-.05-.03-.02-.05-.07-.08-.09-.04-.03-.11-.02-.15-.05-.04-.03-.04-.1-.08-.13-.04-.03-.1-.01-.14-.03-.08-.04-.18-.1-.26-.14-.03,0-.05-.02-.08-.02-.08-.05-.13-.15-.23-.19-.05,0-.1-.01-.15-.02-.04-.01-.08-.06-.12-.07-.03,0-.07,0-.11-.01-.05-.01-.1-.05-.14-.07-.05-.02-.09,0-.13-.02-.04-.02-.07-.08-.11-.09-.03-.02-.07,0-.1-.02-.05-.03-.1-.08-.15-.09-.16-.05-.39-.02-.58-.02-.23,0-.47-.01-.69.04-.1,0-.2,0-.3,0-.04.01-.08.05-.12.06-.11.03-.15-.1-.28-.06-.05.01-.06.06-.09.08-.06.04-.15.06-.22.08-.12.04-.24.06-.34.08-.14.04-.26,0-.38.05-.07.03-.12.11-.19.16-.18.11-.36.2-.53.31-.06.02-.12.04-.18.06-.08.05-.16.12-.25.16-.06.02-.12.04-.18.06-.02.01-.04.05-.07.06-.13.06-.23.06-.36.12-.05.02-.1.07-.15.08-.05,0-.09,0-.14.01-.08.02-.13.07-.21.1-.04,0-.08,0-.12,0-.1.03-.22.08-.33.11-.07,0-.13,0-.2.01-.13.05-.24.28-.36.36-.07.04-.14.05-.21.1-.03.04-.07.08-.11.12-.37.29-.59.64-.85,1.03-.06.09-.15.18-.21.27-.01.05-.03.09-.05.14-.09.14-.2.3-.27.45-.02.05-.01.09-.04.13-.01.01-.03.02-.05.04-.02.04-.01.07-.03.12-.02.04-.07.08-.09.12-.01.05-.03.1-.04.14-.04.08-.12.18-.15.26-.05.12-.06.23-.1.35-.02.05-.08.12-.09.18-.03.1-.03.23-.05.33,0,.07,0,.14,0,.21-.02.06-.06.11-.08.19-.03.11,0,.41.02.51,0,.09,0,.19.01.28.01.05.06.1.07.15,0,.08,0,.16.01.24.02.05.07.1.08.16,0,.1,0,.21,0,.31.04.17.08.35.12.51,0,.1.02.2.02.31.01.04.05.1.06.14,0,.07,0,.15.01.22.02.08.09.12.11.2.03.12,0,.23.04.34.01.03.06.07.07.1.03.06,0,.11.02.18.03.07.06.15.08.22.02.09,0,.17.03.25.12.07.21.04.35.08.3.09.64,0,.87-.08.06-.02.11,0,.18-.02.06-.02.12-.06.18-.08.06-.02.1-.02.15-.05.07-.04.14-.12.21-.17l.09-.04s.07-.09.12-.12c.07-.04.13-.05.2-.09.02-.02.04-.06.07-.07l.13-.02c.05-.02.1-.08.15-.1.1-.04.19-.07.28-.1.05,0,.1,0,.15-.01.03-.01.06-.05.08-.07.05-.03.13-.02.18-.06.12-.11.3-.26.4-.39.14-.18.17-.31.46-.32.02-.04.03-.19.06-.21.04-.04.12-.02.18-.04.13-.03.18-.11.35-.11.03.06,0,.14.06.19.07.05.34.04.43.02.06-.12.13-.17.13-.38-.05-.03-.08-.05-.18-.05-.09.08-.2.18-.36.18-.02-.05-.05-.12-.1-.15-.04-.03-.05,0-.07-.05-.02-.03,0-.04.02-.06.06-.04.12,0,.2-.03.04-.01.08-.06.12-.07.11-.05.21-.07.31-.13.08-.05.07-.17.13-.21.03-.02.07,0,.11-.01.06-.03.19-.21.26-.25.06-.04.13-.05.19-.09.04-.03.08-.09.12-.12.27-.19.53-.42.71-.69.03-.04.03-.1.06-.14.02-.02.06-.06.07-.08.02-.06,0-.11.02-.16.02-.05.08-.1.09-.17,0-.07,0-.14.01-.21.01-.04.06-.1.07-.14,0-.05,0-.1,0-.15.06-.32-.04-.67-.17-.86-.04-.06-.02-.13-.08-.16-.05-.05-.25.02-.32.05-.04.02-.06.07-.11.08-.28.11-.48.25-.7.41-.13.09-.31.27-.4.4-.06.1-.08.22-.14.32-.04.06-.11.11-.15.17-.01.05-.03.1-.05.15-.09.15-.18.33-.26.47,0,.04-.01.07-.02.11-.02.05-.07.08-.08.13-.01.05,0,.07-.02.11-.1.17-.22.29-.35.43-.02.03-.05.06-.07.09-.08.06-.19.06-.25.14-.03.04-.02.09-.05.13-.05.05-.1.09-.15.14-.07.12-.08.24-.15.35-.03.05-.09.09-.13.13-.07,0-.12-.05-.2-.02-.15.04-.35.09-.35.28.01.02.02.03.02.06.03.01.08.03.09.06.02.02.02.02.02.06-.02.02-.03.06-.03.09-.02.01-.02.01-.05.02,0,0,0,0,0-.01-.04-.04-.04-.1-.1-.12-.15-.09-.31.2-.54.14-.07-.02-.17-.05-.23-.09-.03-.02-.04-.07-.08-.08-.12-.05-.14,0-.24-.09.04-.14.16-.25.16-.44-.04-.03-.08-.07-.12-.11.02-.06.05-.11.06-.19-.04-.04-.1-.11-.12-.17,0-.09-.02-.19-.03-.28-.01-.04-.06-.08-.07-.13-.03-.12,0-.22-.04-.34,0-.03-.05-.08-.06-.12-.06-.17-.07-.59-.02-.75.02-.06.08-.2.13-.25.03-.04.1-.07.13-.11.04-.06,0-.16.05-.24.04-.07.12-.14.15-.22,0-.05,0-.09.01-.14.02-.09.08-.16.11-.24,0-.02,0-.05,0-.07.01-.04.1-.22.13-.25.05-.06.16-.06.19-.14v-.21c.1-.06.18-.16.27-.22.07-.05.14-.06.21-.11.08-.05.17-.12.25-.16l.14-.03c.1-.04.21-.12.32-.17.06-.01.12-.02.18-.04.03-.01.07-.06.1-.07.06-.01.13-.02.19-.04.09-.05.2-.11.29-.16.05-.02.08-.01.13-.04.25-.13.52-.27.79-.38.05,0,.09,0,.14-.01.06-.02.12-.06.17-.07.04,0,.08,0,.12-.01.05-.02.09-.07.13-.1.07-.04.2-.06.27-.07.03,0,.35.08.38.09.06.03.07.09.17.09.04-.04.09-.07.16-.07.07.11.3.11.45.14.04.07.05.2.14.21.12.08.26-.04.38-.01.03,0,.16.07.19.09.04.05.08.1.12.15.04.03.12.02.16.04.05.03.07.11.12.14.09.06.21.08.29.14l.06.08c.1.08.22.18.3.28.03.04.04.09.07.12.03.02.06.03.08.06.04.06.05.12.1.18.03.04.08.06.11.11.09.14.02.38.07.55.01.04.06.1.07.14.01.09.03.17.04.26.05.15.12.34.17.49,0,.09.02.18.03.27.02.08.07.13.1.22,0,.1,0,.2,0,.31.03.13.02.5-.02.64-.01.04-.06.07-.07.11-.03.07,0,.16-.03.22-.01.03-.05.05-.06.08l-.04.81c-.03.12-.03.32-.07.45-.01.05-.07.09-.08.13,0,.06,0,.13,0,.19-.01.03-.06.08-.08.11-.02.03,0,.06-.02.1s-.05.07-.07.09c-.03.05-.03.11-.07.15-.02.03-.24.21-.29.19-.07-.02-.06-.12-.13-.15-.04-.03-.07-.01-.12,0-.04.09,0,.2-.03.29-.02.05-.08.07-.09.11-.02.04,0,.08-.01.12-.19.1-.33-.06-.59,0-.08.02-.15.08-.22.11-.04,0-.07.02-.11.02-.05.02-.12.07-.16.11-.01.01-.01.04-.02.05-.01,0-.03,0-.05.01-.06.04-.11.12-.16.16-.03.01-.06.02-.09.04-.07.04-.11.12-.18.17-.05.04-.11.04-.16.07-.05.03-.1.08-.15.11-.07.03-.14.06-.21.08-.04,0-.08,0-.13.01-.05.02-.09.08-.13.1-.15.07-.28.11-.43.18-.03.01-.07.06-.11.07-.07.03-.15.03-.22.06-.04.02-.06.07-.11.08-.43.17-.86.31-1.28.49-.06.03-.14.01-.21.04-.14.05-.32.13-.47.18-.06,0-.13.01-.19.02-.11.03-.26.09-.38.13-.1.04-.18.02-.29.05-.05.01-.1.05-.14.06-.11,0-.21,0-.32,0-.17.04-.38.05-.57.1-.11.03-.25-.02-.34,0-.07,0-.42.05-.47.04-.06-.03-.12-.06-.18-.09-.06,0-.11,0-.17-.01-.05-.03-.1-.11-.14-.16-.03-.03-.14-.13-.18-.15-.19-.13-.41-.19-.59-.33-.06-.05-.1-.13-.15-.19-.04-.04-.1-.07-.13-.12-.1-.15-.15-.32-.25-.47-.19-.3-.39-.61-.55-.93-.02-.03-.06-.05-.08-.08-.09-.13-.14-.26-.23-.39-.07-.09-.18-.17-.25-.27-.05-.07-.01-.16-.05-.23-.02-.04-.07-.05-.11-.07-.05-.03-.06-.1-.1-.14,0-.01-.04-.01-.05-.02-.04-.04-.02-.1-.05-.15-.03-.05-.1-.1-.13-.15-.11-.17-.19-.34-.27-.54-.03-.07-.11-.13-.14-.2-.15-.33-.3-.65-.41-1.02-.04-.15,0-.31-.03-.47-.02-.1-.02-.3,0-.4.03-.12-.01-.29,0-.4v-.4c.03-.1.14-.3.1-.44-.01-.03-.04-.06-.05-.11.13-.09.21-.21.26-.39,0-.04,0-.07,0-.11,0-.03.05-.06.06-.08,0-.06.02-.13.02-.19.03-.09.1-.12.14-.19.03-.04.01-.09.03-.14.03-.06.21-.18.27-.23.08-.06.15-.17.21-.26.08-.11.21-.19.29-.3.17-.24.35-.46.51-.71.04-.06.12-.09.18-.14.05-.05.07-.12.12-.18.08-.11.22-.2.3-.31.04-.05.05-.1.09-.14h.05c.14-.12.25-.28.39-.38.06-.04.13-.06.19-.11.09-.06.15-.18.25-.25.07-.05.14-.08.21-.13.03-.02.05-.06.08-.09.06-.04.12-.05.18-.08.04-.02.07-.07.11-.09.04,0,.07-.02.11-.02.02,0,.04-.04.06-.05.05-.03.11-.03.18-.06.04-.02.09-.06.13-.08.04,0,.08-.02.12-.03.04-.02.07-.07.1-.08.04,0,.08-.02.12-.03.09-.04.2-.12.29-.18.07-.04.16-.09.24-.11.04,0,.08,0,.12-.01.08-.03.18-.11.27-.14.1-.02.2-.03.29-.05.03-.01.07-.06.1-.07l.27-.04c.07-.02.15-.07.22-.08.07,0,.13,0,.2-.01.05-.02.1-.06.15-.07h.24c.11-.02.18-.08.28-.11.11-.03.21,0,.32-.03.13-.04.31-.06.46-.1.1,0,.2,0,.3,0,.08-.02.17-.06.27-.08.1,0,.2,0,.3,0,.04-.01.09-.04.13-.05.04-.01.1,0,.13-.01M224.42,10.54c.61-.02,1.14.04,1.58.2.07.15.18.25.3.35,0,.22-.16.36-.24.51-.04.07-.04.14-.1.18-.05.03-.11.02-.18.04-.18.06-.37.1-.55.18-.1.04-.24.11-.34.16-.05.02-.07,0-.12.02-.11.05-.24.16-.36.2-.04,0-.09,0-.13.01-.04.01-.07.07-.11.08-.05.02-.09,0-.13.02-.17.09-.39.2-.58.28s-.44.14-.64.19c-.07,0-.15.02-.22.03-.18.05-.51.11-.74.05-.07-.01-.15-.04-.22-.06-.04-.06-.08-.14-.13-.2.04-.18.13-.32.22-.44.03-.04.1-.07.13-.12.03-.05.03-.11.07-.14.04,0,.07-.02.11-.02.03-.01.06-.04.09-.06,0-.05.02-.15.05-.19.02-.03.07-.04.09-.07.06-.06.12-.16.19-.2.02,0,.03,0,.05,0,.04-.02.08-.08.12-.11.07-.04.13-.04.2-.08.03-.02.06-.06.1-.07.11-.05.2-.06.29-.12.11-.07.17-.21.28-.27.12-.07.24-.16.36-.23.11-.06.27-.08.4-.11.06-.01.14.01.18-.01M196.97,11.64c.12,0,.29-.03.44,0,.12.03.29.04.42.04.19,0,.37-.01.55-.02.07.02.14.07.2.09.09.03.16-.02.26,0,.1.02.18.06.27.08.13,0,.27,0,.4-.01.1.02.19.07.27.09.07.02.13,0,.19.04.03.01.07.05.11.06.07,0,.15,0,.22,0l.18.09c.07,0,.13.02.2.02.19.05.49.14.5.39-.03.03-.04.09-.07.12-.08.08-.19.13-.27.2-.11.1-.17.23-.36.25-.13-.16-.26-.27-.5-.33-.12-.01-.24-.02-.37-.03-.11-.03-.17-.09-.28-.12-.08,0-.16,0-.25,0-.05-.01-.12-.04-.16-.05-.05,0-.1,0-.14,0-.11-.02-.21-.07-.3-.09-.06,0-.13-.01-.19-.02-.07-.02-.14-.07-.21-.09-.05,0-.09,0-.14-.01-.05-.02-.12-.05-.18-.07-.06,0-.11-.02-.17-.02-.05-.02-.11-.06-.17-.08-.27-.09-.54-.16-.72-.33.03-.13.17-.14.26-.21M225.44,15.64c.14,0,.3.03.42.03l.29-.02c.07.02.12.07.18.09.08.03.16.03.22.07.02.02.03.04.05.06.05.01.1.03.14.05.03.02.07.07.11.08.05.01.1.02.15.04.1.06.23.27.31.37.02.02.05.04.07.06.02.03,0,.06.02.08l.05.04v.16c-.04.07-.03.16-.07.23-.03.04-.08.06-.11.11-.02.04-.01.11-.04.14-.04.01-.09.02-.13.04-.05.03-.04.12-.11.14-.1.04-.14-.06-.2-.08-.09-.03-.17.03-.25.01-.15-.02-.33-.13-.47-.11-.07,0-.12.06-.17.07-.09.03-.33-.07-.48-.03-.03,0-.08.04-.1.05-.14.04-.41-.04-.53-.04-.15,0-.24.02-.34.05-.14.03-.32,0-.45,0-.35,0-.63,0-.9-.08h-.33s-.11-.03-.15-.04c-.04,0-.09,0-.13,0-.05-.01-.08-.07-.13-.08-.1-.04-.18.02-.19-.12.09-.06.17-.1.27-.16.03-.02.07-.07.11-.08.07,0,.13,0,.2,0,.04-.01.07-.07.11-.08h.17s.08-.05.12-.06c.05,0,.11-.02.17-.02.16-.05.36-.1.58-.11.01-.02.14-.18.16-.19.04-.01.1,0,.12.01.04,0,.05-.02.08-.02.02-.04.17-.28.19-.3.02,0,.05,0,.07-.01.04-.02.08-.07.12-.08.05,0,.1,0,.15,0,.03-.01.14-.15.17-.19.13,0,.41.01.48-.04M200.19,16.79c.32,0,.57.03.84.06.08.01.15-.08.22-.04.07.02.32.23.34.29,0,.05,0,.1,0,.15-.11.12-.15.33-.29.43-.08.05-.21,0-.32.02-.11.03-.22.06-.33.09-.08,0-.16.02-.24.02-.31.09-.65.19-.95.28-.12.04-.22.02-.35.05-.29.08-.61.13-.94.05-.1-.02-.2.02-.26.04-.03,0-.06,0-.09,0-.2.06-.44.17-.67.1-.14-.04-.27-.03-.27-.21.14-.11-.01-.2.05-.31.03-.07.21-.25.27-.3.04-.03.09-.02.13-.05,0,0,0-.04.02-.05.09-.06.21-.07.32-.12.07-.03.15-.08.22-.11l.25-.02s.07-.05.11-.06c.12-.01.24-.03.36-.04.28-.09.67-.13.95-.19.18-.05.36-.05.53-.09.04,0,.08,0,.11-.01M213.96,18.79s.06.02.07.07c-.02,0-.05.01-.08.01-.01-.02-.02-.02-.02-.06.02,0,.02-.01.04-.02M203.2,20.88c.22,0,.53.21.53.41-.02.02-.02.05-.05.07-.02.01-.04,0-.05.02-.03.05-.02.11-.05.17-.01.03-.18.32-.2.33-.09.06-.19.08-.28.13-.05.03-.13.12-.19.16-.02,0-.04,0-.06.01-.42.31-.83.64-1.28.93-.21.13-.47.21-.69.34-.25.14-.54.23-.84.32-.15.05-.34.02-.43-.07-.07-.07-.07-.18-.05-.28.02-.1,0-.18.02-.26.05-.13.16-.26.24-.37.05-.07.16-.14.22-.2.07-.07.12-.19.2-.25.14-.11.27-.21.41-.32.04-.03.07-.1.12-.13.07-.05.14-.07.21-.12.07-.05.13-.13.2-.18.04-.02.08-.02.12-.05.02-.02.04-.05.06-.07.17-.12.34-.2.51-.31.04-.03.08-.08.13-.09.06,0,.11-.01.16-.01.08-.03.16-.07.27-.1.13,0,.27,0,.4,0,.05-.01.12-.04.16-.05.07-.02.13,0,.18-.02M221.74,21.66c.12,0,.22.05.31.08.07,0,.15,0,.22-.01.04.01.12.03.18.05.15.03.28-.07.45-.03.05.01.1.05.15.07.05,0,.11.02.16.02.04.02.09.07.13.08.04.01.1-.01.12-.01.05-.01.18.02.22.03.07.02.1.11.18.13.12.04.24.02.37.04.11.21.43.27.25.62-.03.06-.1.08-.14.13-.05.07-.06.19-.18.2-.04.02-.14-.02-.2-.04-.1-.03-.24-.03-.34-.06-.14,0-.28,0-.41,0-.07-.03-.15-.06-.23-.09h-.25s-.1-.03-.14-.05l-.31-.02s-.07-.07-.11-.09c-.05-.01-.09-.03-.14-.04-.04-.02-.08-.09-.12-.12-.07-.04-.22-.02-.3-.05-.2-.07-.4-.15-.58-.23-.07-.03-.15-.04-.2-.09-.04-.04-.06-.09-.1-.13,0-.14.1-.32.21-.34.08-.05.19.02.28,0,.03,0,.08-.04.11-.05h.02s0,.01.01.01c.02.05.05.06.08.09.13,0,.21-.05.27-.12M217.38,27.26c.19,0,.28.02.4.06.12.03.21,0,.31.03.03.01.07.05.11.06.14.04.3,0,.43.05.3.11.57.31.76.54.06.07.15.11.2.2l.04.11c.05.07.14.12.17.21,0,.05,0,.09-.01.14,0,.06,0,.12.01.18-.04.17-.18.31-.29.43-.06.07-.09.15-.22.15-.09-.13-.24-.18-.38-.27-.03-.02-.06-.06-.08-.07-.05-.03-.11-.02-.15-.05-.07-.05-.16-.11-.24-.15-.05-.03-.1-.03-.14-.06-.05-.04-.05-.12-.08-.18-.04-.05-.15-.04-.19-.09-.02-.03-.01-.08-.04-.12-.02-.04-.09-.05-.12-.07-.03-.02-.03-.07-.06-.09-.05-.05-.14-.06-.19-.12-.04-.05-.06-.14-.11-.18-.03-.02-.06,0-.1-.02-.04-.01-.07-.07-.11-.08-.02,0-.04,0-.06,0-.06-.02-.13-.1-.19-.13-.2-.1-.3-.15-.46-.29,0-.04,0-.05.01-.08.05-.03.1-.08.19-.06.05.01.12.04.19.02.06-.02.15-.04.21-.05.07-.02.15,0,.2-.03M206.63,27.72c.3,0,.59.02.81.08.06,0,.13,0,.19,0,.1.02.22.03.27.1.03.04.01.06.04.12.01.03.05.07.06.12,0,.05-.02.13-.01.2.03.13-.1.3-.14.41,0,.04,0,.08-.01.12-.01.05-.05.1-.07.13-.03.05,0,.1-.02.16-.03.06-.06.13-.09.19-.03.09-.01.18-.04.27-.01.03-.04.05-.06.07-.07.11-.06.28-.11.41-.01.03-.06.06-.07.1-.02.06,0,.11-.03.15-.02.03-.08.07-.09.11-.01.07-.03.14-.05.21-.05.11-.14.22-.2.32-.02.07-.04.15-.06.22-.02.04-.07.06-.09.09-.06.09-.11.18-.17.27-.02.02-.05.03-.07.05-.05.05-.06.17-.11.23-.03.05-.1.07-.14.11-.04.04-.06.11-.1.14-.02,0-.03,0-.05.01-.03.04-.02.13-.05.18-.06.09-.24.15-.29.23,0,.02,0,.04-.01.06-.07.12-.37.31-.49.39-.06.04-.14.04-.2.08-.03.02-.06.07-.1.08-.06,0-.12,0-.18.01-.02,0-.05.03-.07.03-.11.03-.2-.03-.28-.04-.05-.08-.11-.18-.13-.27,0-.05,0-.1,0-.15,0-.03-.04-.09-.02-.15.03-.1.18-.27.22-.38.04-.1,0-.23.04-.32.06-.11.24-.22.28-.33.04-.12-.05-.24,0-.35.04-.1.12-.2.16-.28.02-.04,0-.06.02-.09.02-.03.06-.05.07-.08.04-.09,0-.17.05-.26.03-.05.13-.09.15-.15.03-.1-.01-.2.02-.28.03-.1.11-.22.15-.31.02-.03,0-.06.02-.09.02-.04.06-.07.08-.11,0-.03.01-.07.02-.11.02-.05.08-.1.09-.15.06-.17.04-.34.09-.51.02-.05.07-.09.08-.14.03-.09.01-.18.04-.27.01-.04.07-.09.08-.13.04-.09.02-.22.03-.31.11-.06.26-.1.39-.14.05-.02.11,0,.15-.04M211.37,33.59s0-.02,0-.04c-.09-.03-.1-.12-.14-.2-.05-.08-.13-.18-.17-.28-.02-.05,0-.08-.02-.12-.01-.03-.05-.06-.06-.09,0-.09,0-.18-.01-.27-.01-.05-.06-.1-.07-.17-.02-.1-.02-.45,0-.53,0-.13,0-.27,0-.4.01-.06.05-.11.07-.16,0-.19,0-.39,0-.58,0-.04-.03-.14-.01-.2.01-.06,0-.16.03-.21.01-.03.05-.06.06-.09.05-.14.02-.28.13-.36.09-.07.26-.08.39-.11.06,0,.12,0,.18,0,.04-.01.42-.1.42-.1.1.03.05.14.08.23.01.04.06.08.07.12.03.06,0,.12.03.19.02.06.06.12.07.17.03.11,0,.21.04.32.15.59.07,1.42-.13,1.87-.01.02-.08.14-.09.17-.01.01-.04,0-.05.02-.02.03,0,.06-.02.09-.02.04-.14.21-.18.25-.03.03-.08.04-.11.07-.1.09-.34.39-.5.39"/>
        <text class="cls-2" transform="translate(0 27.26)"><tspan class="cls-4" x="0" y="0">COSTA</tspan><tspan class="cls-1" x="67.46" y="0"> </tspan><tspan class="cls-5" x="72.41" y="0">RIO</tspan><tspan class="cls-1" x="109.91" y="0"> </tspan><tspan class="cls-5" x="114.85" y="0">PARANA</tspan></text>
      </g>
    </g>
  </g>
</svg>