<?xml version="1.0" encoding="UTF-8"?>
<svg id="Capa_2" data-name="Capa 2" xmlns="http://www.w3.org/2000/svg" viewBox="0 0 49.54 54.13">
  <defs>
    <style>
      .cls-1 {
        fill: #fff;
        fill-rule: evenodd;
        stroke-width: 0px;
      }
    </style>
  </defs>
  <g id="home">
    <g id="footer">
      <path class="cls-1" d="M25.91,0c.13,0,.6.17.63.24.05.05.03.42,0,.55-.02.09.01.27-.02.38-.03.1-.1.21-.13.32v.51c-.03.15-.06.3-.11.47-.04.16,0,.39-.05.55-.02.07-.09.15-.11.23,0,.23,0,.47-.01.7-.02.09-.09.17-.11.25-.05.17-.04.38-.07.53v.89s-.09.11-.11.17c-.01.13-.02.27-.04.4-.05.21-.18.49-.24.7-.05.18-.01.33-.07.49-.02.06-.09.12-.11.17-.01.11-.02.21-.04.32-.05.12-.16.28-.23.4-.05.09-.06.19-.11.27-.05.07-.17.09-.23.15-.04.04-.03.12-.08.15-.14.11-.29.17-.43.27-.09.06-.3.28-.47.17-.34-.12-.58-.81-.47-1.32.04-.19-.08-.32-.04-.48.03-.13.09-.23.05-.42-.03-.14.09-.2.13-.33,0-.1.01-.19.02-.28.02-.03.09-.05.11-.08.04-.05.07-.27.03-.38-.03-.12-.14-.19-.17-.32-.03-.13,0-.51.03-.63,0-.33-.02-.66-.03-.99.03-.14.12-.24.15-.34.03-.14-.14-.2-.1-.38.02-.06.08-.13.09-.19-.01-.13-.03-.25-.04-.38,0-.23.02-.58.07-.8,0-.25,0-.51,0-.76.02-.06.09-.16.09-.23,0-.12-.09-.19-.1-.34.07-.03.18-.03.27-.08.13-.07.25-.19.42-.23.18-.05.34-.06.49-.1.09,0,.19,0,.28,0,.09-.02.17-.09.24-.11.26-.1.4.03.59-.16M34.4,2.96c.31-.01.92.07,1.1.2.07.05.19.23.27.3,0,.14-.05.18-.06.34.11.08.29.17.35.3.05.13-.02.33.02.49.04.18.08.43.12.59.05.21-.07.62-.02.87.07.33-.06.64-.13.91,0,.12-.01.24-.01.36-.01.04-.06.11-.08.15,0,.08-.01.16-.02.25-.03.09-.13.18-.17.27-.08.16-.08.31-.17.46-.09.15-.25.31-.38.44-.05.04-.09.08-.13.11-.02.11-.04.22-.06.32-.03.05-.11.06-.15.1-.04.05-.08.1-.11.15-.14.11-.27.21-.42.32-.07.06-.13.16-.21.21-.06.04-.12.04-.19.08-.24.14-.29.4-.72.4-.07-.06-.14-.09-.17-.19-.02-.08,0-.13-.04-.19-.05-.07-.11-.07-.13-.19.07-.08.02-.47.07-.66.02-.07.09-.15.11-.21.04-.13-.04-.24-.04-.34,0-.2.03-.35.07-.51,0-.11,0-.21,0-.32.04-.17.11-.26.09-.47-.07-.04-.14-.09-.15-.19.08-.08.18-.16.19-.31-.09-.09-.13-.22-.14-.4.1-.1.22-.31.11-.5-.03-.06-.16-.12-.13-.23.03-.12.16-.09.17-.32-.05-.06-.09-.12-.1-.23.1-.06.16-.12.23-.21-.05-.23-.19-.14-.19-.4.12-.15-.04-.27-.08-.36-.01-.11-.02-.22-.04-.32-.11-.23-.3-.24-.23-.59.22-.14.5-.17.76-.29.07-.03.13-.11.21-.13.21-.06.43.03.59-.08M12.88,6.6c.21,0,.43,0,.64,0,.08.02.11.13.17.17.11.06.22.06.32.13.07.05.12.14.19.19.3.2.56.44.73.77.07.14.26.26.31.42.05.15-.05.33-.02.49.11.04.43.29.48.39.04.09,0,.17.04.25.03.06.08.05.1.15-.3.28.06.31.25.38.15.25.26.49.44.7.09.11.25.16.35.28.06.08.2.21.15.38-.02.08-.11.13-.15.19-.07.11-.08.25-.19.32-.04.03-.1.03-.13.06-.12-.02-.21-.08-.3-.11s-.17,0-.25-.04c-.1-.06-.16-.19-.27-.24-.09-.04-.17-.03-.25-.08-.08-.05-.17-.14-.25-.19-.05-.03-.1-.02-.13-.06-.06-.07-.04-.21-.1-.28-.12-.17-.35-.29-.46-.47-.04-.07,0-.15-.04-.23-.05-.04-.1-.08-.15-.11-.1-.16-.16-.42-.18-.66-.12-.03-.14-.04-.3-.04-.11-.15-.25-.35-.33-.53-.02-.07-.04-.14-.06-.21-.04-.07-.12-.15-.15-.23-.04-.08,0-.15-.04-.25-.05-.13-.19-.33-.25-.47l-.06-.28c-.09-.21-.26-.4-.27-.68.05-.05.1-.07.15-.12M43.64,8.89s.07,0,.1.02c.33.11.29.77.21,1.16,0,.14.02.29.02.44-.02.07-.12.16-.17.23-.18.24-.46.42-.64.67-.4.55-.91,1.06-1.45,1.47-.17.13-.3.35-.47.48-.2.14-.38.28-.59.42-.1.07-.19.19-.3.25-.03,0-.06.01-.09.02-.14.09-.27.25-.44.33-.19.1-.41.25-.6.33l-.36.06c-.15.06-.52.26-.78.19-.14-.04-.2-.16-.29-.25-.03-.38.02-.34.15-.59.04-.09.05-.2.11-.27.2-.21.31-.21.32-.63.23-.18.3-.43.47-.65.07-.08.21-.09.29-.17.03-.1.06-.19.09-.29.09-.12.27-.18.36-.31.07-.1.08-.22.15-.32.13-.11.25-.23.38-.34.05-.07.06-.14.11-.21.02-.03.05-.02.08-.04.06-.05.1-.14.15-.21.04-.03.09-.06.13-.1.08-.09.1-.2.19-.27.05-.03.11-.04.15-.07.09-.1.11-.26.21-.36.09-.09.23-.16.32-.25,0-.13-.07-.27-.04-.33.03-.16.32-.38.53-.38.11.09.27.13.44.07.04-.01.08-.06.15-.04.04.01.11.08.15.09.15.04.25-.06.34-.08.28-.07.42.12.63-.08M4.22,11.39c.7-.02,1.49.18,2.07.33.11,0,.21.01.32.02.12.03.29.06.44.09.07,0,.14,0,.21,0,.17.05.27.16.44.2.13,0,.25.01.38.02.13.03.36.06.49.13.04.02.1.08.15.09.15.04.29-.06.44,0,.1.04.15.14.25.19.11.05.2.05.32.09.13.05.29.15.42.21.08.02.16.04.25.05.17.09.34.24.5.34.11.07.33.03.44.11.04.02.05.07.08.11.09.11.23.19.32.3.05.06.03.15.08.23.04.08.16.19.23.25,0,.07,0,.14-.02.21-.02.03-.08.08-.09.12-.1.22-.15.89-.51.82-.39-.08-.72-.29-1.05-.41-.11-.02-.22-.05-.32-.08-.1-.05-.13-.2-.23-.24-.15-.07-.3-.05-.44-.11-.38-.16-.74-.34-1.16-.49-.07-.03-.12-.1-.17-.13-.07-.04-.14-.02-.21-.05-.12-.07-.28-.17-.4-.25-.16-.09-.33-.12-.49-.21-.43-.23-.87-.51-1.28-.77-.13-.08-.27-.11-.4-.19-.23-.15-.48-.3-.72-.43-.14-.07-.44-.15-.5-.3-.04-.05-.03-.06-.02-.11.06-.04.13-.09.19-.13M24.24,11.61c.28,0,.53.09.78.14.23.05.52-.02.68-.06.2-.05.31.11.51.06.04-.01.11-.07.15-.08.12-.03.26.05.34.07l.4-.02c.13.03.24.13.36.17.17.05.27-.07.36-.1,0,0,.65.06.7.07.13.04.26.13.38.17.17.05.35.05.51.11.07.03.11.11.19.13.15.04.32-.03.46.03.08.04.15.16.23.19.13.05.24-.07.4-.02.18.05.2.29.36.34.13.04.22-.08.34-.04.19.05.33.3.52.36.2.06.35-.03.51.07.2.12.3.39.61.39.05-.04.13-.04.23-.04.03.04.09.07.11.11.05.08.03.15.1.21.1.07.22,0,.32.05.07.04.14.12.21.17.1.07.24.08.32.17.06.06.08.14.16.19.07.05.15.02.25.05.07.03.17.09.25.13.13.08.14.34.29.4.04.03.09.01.15.04.09.03.15.14.23.19.07.04.14.03.21.07.1.07.12.23.21.3.1.07.24.1.32.19.03.03.03.07.06.1.11.08.23.16.32.26.02.02.02.07.04.1.11.12.27.21.37.34.1.14.18.29.29.44.06.09.17.16.23.24.06.09.09.18.15.26.07.08.17.17.23.27.03.04.01.09.04.13.04.07.17.1.21.17.01.11.02.22.04.32.04.09.16.16.21.25.05.09.15.24.17.32,0,.06.01.12.02.19.02.04.08.09.1.13.03.08-.03.18-.04.23,0,.05.06.48.08.53.04.12.41.42.52.53,0,.19-.15.29-.09.47.03.1.13.14.17.21.05.09,0,.24.02.36,0,.03.05.11.06.13,0,.08,0,.17,0,.25.02.04.08.08.09.13,0,.04,0,.43-.02.46-.05.08-.23.15-.17.29.02.14.09.09.15.17.06.07-.01.24.02.34.06.16.17.07.18.36-.1.1-.2.33-.13.53.03.09.17.18.12.34-.03.11-.13.21-.15.36-.01.08.04.2.06.27.02.09-.02.17-.04.23-.02.06.01.15.02.19.02.09-.02.16-.04.23-.07.04-.24.11-.26.19-.11.18.15.21.19.31.07.12-.11.26-.07.44.06.3-.03.28-.09.49,0,.15,0,.3-.01.45-.02.07-.01.17-.04.27-.02.08-.09.17-.11.25-.02.15-.04.3-.06.46-.03.09-.12.15-.15.25,0,.07,0,.14,0,.21-.06.21-.17.48-.24.68-.05.16-.02.3-.07.46-.02.06-.09.14-.11.21-.01.09-.03.19-.04.28-.07.2-.2.48-.28.69l-.07.35c-.05.12-.19.31-.23.42-.04.11,0,.23-.05.33-.06.11-.18.2-.23.32-.08.2-.1.35-.21.52-.03.04-.11.09-.13.13-.01.07-.02.13-.04.19-.08.16-.24.32-.32.48-.03.05-.01.1-.04.15-.06.11-.19.22-.24.33-.21.39-.43.76-.68,1.12-.1.15-.26.28-.36.42-.05.07-.06.15-.11.23-.07.11-.21.2-.28.31-.05.07-.05.17-.11.23-.06.06-.16.07-.21.13-.03.04-.01.1-.04.13-.1.16-.28.27-.39.42-.38.51-.8.93-1.26,1.36-.06.06-.07.15-.13.21-.04.05-.12.05-.17.1-.04.03-.03.08-.06.11-.08.11-.25.17-.36.27-.03.03-.04.09-.08.11-.18.13-.37.22-.57.35-.22.15-.36.42-.59.57-.18.12-.38.17-.57.29-.04.02-.07.07-.11.1-.05,0-.09.01-.13.02-.48.24-.98.52-1.48.75-.1.04-.2.03-.32.08-.18.06-.37.18-.55.25-.11.03-.23.05-.34.08-.08.03-.16.11-.25.14-.09,0-.18.02-.27.02-.54.22-1.24.32-1.86.47-.41.1-.89,0-1.29.09-.25.06-.56-.02-.83.04-.15.03-.62.07-.8.02-.12-.03-.22-.1-.34-.13-.2-.05-.29.11-.49.06-.18-.05-.4-.13-.57-.17-.11,0-.23,0-.34,0-.43-.1-.93-.09-1.35-.2-.13-.03-.26-.11-.38-.15l-.23-.04s-.04-.05-.06-.08c-.1-.08-.25-.18-.36-.23-.16-.07-.3-.08-.47-.15-.37-.14-.79-.61-1.01-.92-.14-.18-.41-.3-.52-.51-.02-.15-.04-.3-.06-.46-.08-.07-.15-.14-.23-.21-.07-.13-.1-.41-.14-.55-.04-.17.19-.63.24-.74.1-.24.23-.31.38-.5.03-.04.02-.09.05-.11.08-.02.16-.04.25-.06.09-.04.18-.18.34-.14.1.03.23.1.34.13.18.04.36-.07.53,0,.23.09.27.3.44.41.15.1.28.14.4.26,1,0,2.24.19,3.23-.04.21-.05.38,0,.59-.06.12-.04.29-.1.42-.14.07,0,.14-.01.21-.02.06-.02.14-.09.21-.12.11-.02.22-.04.32-.06.05-.03.12-.09.17-.12.09-.02.17-.04.26-.06.1-.04.21-.14.32-.18.17-.02.34-.04.51-.06.12-.04.15-.16.24-.23.08-.06.17-.09.27-.15.06-.04.11-.14.17-.18.07-.04.14,0,.21-.04.04-.02.09-.09.13-.11.11-.07.26-.08.38-.15.21-.14.36-.39.57-.52.02,0,.04,0,.05,0,.05-.03.1-.11.15-.13.04,0,.09-.02.13-.02.06-.03.11-.11.17-.13.12-.05.24-.05.32-.14.03-.03.04-.09.07-.11.06-.05.14-.09.19-.15,0-.02.01-.05.02-.08.06-.06.15-.08.21-.13.08-.06.12-.18.19-.25.06-.05.13-.09.19-.14.21-.16.41-.38.57-.59.11-.15.37-.19.47-.35.02-.06.04-.13.05-.19.1-.16.29-.3.4-.46.05-.07.06-.16.11-.23.06-.09.19-.18.24-.27.09-.16.11-.32.19-.47.03-.06.1-.12.13-.17.02-.06.04-.13.06-.19.03-.03.06-.05.09-.08.04-.08.03-.18.07-.25.38-.61.77-1.23,1.16-1.83.05-.07.03-.15.07-.23.05-.09.17-.16.23-.25.06-.15.11-.29.17-.44.06-.09.16-.18.21-.29.02-.1.04-.19.05-.28.08-.18.23-.4.3-.59,0-.07.01-.13.02-.19.03-.1.1-.2.13-.28,0-.08.01-.15.02-.23.03-.09.1-.18.13-.28,0-.08,0-.15,0-.23.03-.1.11-.21.15-.3.06-.13.01-.26.05-.42.03-.1.1-.18.13-.27.01-.15.02-.29.03-.44.03-.1.1-.18.13-.28.09-.34.07-.98-.01-1.31,0-.13-.01-.27-.02-.4-.03-.15-.06-.47-.03-.65.02-.08.02-.21.06-.3.04-.12.13-.19.15-.36-.11-.1-.31-.21-.33-.4-.18-.3.29-.6.17-.99-.05-.14-.13-.3-.17-.43-.03-.11,0-.2-.04-.29-.03-.07-.11-.14-.13-.22-.01-.08-.03-.17-.04-.25-.03-.08-.13-.16-.15-.24,0-.09-.02-.18-.02-.27-.02-.05-.09-.1-.11-.15-.07-.16-.07-.32-.16-.47-.04-.08-.14-.12-.17-.23,0-.14,0-.28.02-.42-.01,0-.03-.01-.04-.02-.06-.04-.19-.05-.28-.05-.07-.21-.24-.32-.36-.47-.05-.06-.05-.14-.1-.21-.05-.06-.13-.09-.19-.15-.03-.03-.04-.09-.08-.11-.06-.04-.13-.04-.19-.08-.07-.05-.11-.13-.17-.19-.03,0-.05-.01-.08-.02-.08-.07-.23-.34-.29-.38-.08-.02-.17-.04-.25-.06-.06-.03-.08-.13-.13-.17-.08-.01-.15-.03-.23-.04-.03-.03-.05-.06-.08-.09-.06-.04-.13-.03-.19-.07-.05-.04-.09-.12-.13-.15-.07-.05-.18-.03-.25-.07-.06-.04-.07-.17-.13-.21-.06-.04-.16-.02-.23-.05-.13-.07-.29-.16-.42-.22-.04-.01-.09-.03-.13-.04-.13-.08-.21-.24-.36-.3-.08-.01-.17-.02-.25-.04-.06-.02-.13-.09-.19-.11-.06,0-.11-.01-.17-.02-.08-.02-.16-.09-.23-.11-.07-.03-.14,0-.21-.04-.06-.03-.12-.12-.17-.15-.06-.03-.11-.01-.15-.04-.08-.04-.15-.12-.25-.15-.25-.08-.62-.03-.93-.03-.38,0-.76-.02-1.12.06-.16,0-.32,0-.48,0-.07.02-.13.08-.19.1-.17.05-.25-.16-.46-.09-.07.02-.1.1-.15.13-.09.07-.24.1-.36.14-.2.06-.39.09-.55.14-.22.06-.42,0-.61.08-.12.05-.2.18-.3.25-.29.18-.58.32-.85.5-.1.03-.19.07-.28.1-.13.08-.26.2-.4.27-.09.03-.19.07-.28.1-.03.02-.07.08-.11.1-.21.09-.38.1-.59.19-.08.03-.17.11-.25.14-.08,0-.15.01-.23.02-.12.03-.22.12-.34.15-.06,0-.13,0-.19,0-.17.04-.35.13-.53.17-.11,0-.21.02-.32.02-.21.09-.38.45-.58.57-.12.07-.23.08-.34.15-.06.06-.12.13-.17.19-.6.46-.95,1.02-1.37,1.66-.1.14-.25.29-.34.44-.02.08-.05.15-.07.23-.14.22-.33.48-.43.73-.03.07-.02.14-.06.21-.02.02-.05.04-.08.06-.04.06-.02.12-.05.19-.03.06-.11.13-.15.19-.02.08-.05.16-.07.23-.07.13-.19.28-.24.42-.09.2-.09.36-.17.57-.03.09-.12.19-.15.29-.05.16-.05.38-.07.53,0,.11,0,.23,0,.34-.03.1-.1.18-.13.3-.04.18,0,.66.02.82,0,.15.01.3.02.45.02.07.09.16.12.25,0,.12.01.25.02.38.03.08.11.16.14.26,0,.17,0,.33-.02.5.07.27.13.57.2.81.01.16.03.33.04.49.02.07.07.16.1.23,0,.12.01.24.02.36.04.13.14.2.17.32.05.2,0,.38.06.55.02.06.09.12.12.17.04.09.01.17.04.29.05.12.09.24.14.36.04.14,0,.27.04.4.19.12.34.06.57.13.49.14,1.02,0,1.4-.12.1-.03.17,0,.28-.04.1-.03.2-.1.28-.14.09-.04.17-.03.25-.08.11-.07.22-.19.34-.27l.15-.06c.06-.05.11-.15.19-.19.11-.06.22-.08.32-.15.04-.02.07-.09.11-.12l.21-.04c.08-.04.16-.12.24-.15.15-.06.31-.12.45-.16.09,0,.16-.01.25-.02.05-.02.09-.09.13-.11.08-.05.21-.03.28-.1.19-.18.48-.42.64-.63.22-.29.28-.5.74-.52.03-.06.05-.3.09-.34.06-.06.19-.03.28-.06.21-.06.29-.17.57-.17.05.1,0,.23.1.3.12.09.55.07.69.03.1-.2.21-.28.2-.61-.09-.05-.13-.08-.29-.07-.14.13-.32.28-.59.29-.03-.08-.08-.2-.15-.24-.07-.04-.08,0-.11-.08-.03-.05-.02-.07.04-.1.1-.07.19,0,.32-.04.06-.02.13-.09.19-.11.17-.08.34-.11.49-.21.13-.08.12-.28.21-.34.04-.03.11,0,.17-.02.09-.04.3-.33.41-.4.1-.06.2-.09.3-.15.07-.05.12-.14.19-.19.43-.3.86-.68,1.15-1.11.05-.07.05-.15.09-.23.02-.04.09-.09.11-.13.04-.09,0-.18.03-.27.03-.09.12-.17.15-.27,0-.12.01-.23.02-.34.02-.07.09-.16.11-.23,0-.08,0-.16,0-.25.1-.52-.06-1.07-.28-1.38-.06-.09-.03-.21-.13-.26-.08-.07-.4.03-.51.08-.06.02-.1.11-.17.13-.44.18-.77.4-1.13.65-.21.15-.5.43-.64.65-.1.16-.13.35-.23.51-.06.1-.18.17-.25.27-.02.08-.05.17-.07.25-.14.24-.29.52-.41.76-.01.06-.02.11-.03.17-.03.07-.11.13-.13.21-.02.07,0,.12-.04.17-.16.27-.35.47-.56.69-.04.05-.08.1-.11.15-.13.09-.31.1-.4.23-.04.06-.03.15-.07.21-.08.07-.16.15-.24.23-.11.19-.13.39-.24.57-.05.08-.14.14-.21.21-.11,0-.19-.07-.32-.04-.23.07-.57.15-.57.46.02.03.03.05.04.1.04.02.13.05.15.09.03.03.03.04.04.1-.03.04-.05.1-.05.15-.03.02-.03.02-.08.04,0,0,0-.01,0-.02-.07-.06-.06-.15-.16-.19-.24-.14-.5.32-.87.23-.11-.03-.27-.09-.36-.15-.05-.04-.07-.11-.13-.13-.19-.08-.22-.01-.38-.15.06-.22.25-.4.26-.71-.06-.05-.13-.12-.19-.17.04-.1.08-.18.09-.3-.06-.07-.17-.18-.19-.27-.01-.15-.03-.3-.04-.46-.02-.06-.09-.13-.11-.21-.05-.19,0-.36-.06-.55-.01-.05-.08-.13-.09-.19-.09-.27-.12-.95-.03-1.22.04-.1.13-.32.21-.4.05-.06.16-.11.21-.17.07-.09.02-.26.07-.38.06-.12.2-.23.24-.36,0-.07.01-.15.02-.23.03-.14.13-.26.17-.38,0-.04,0-.08,0-.11.02-.06.17-.36.21-.4.08-.09.26-.1.3-.23v-.34c.16-.1.28-.25.43-.36.11-.08.22-.1.34-.18.12-.08.27-.2.4-.27l.23-.04c.16-.06.35-.2.51-.27.1-.02.19-.04.29-.06.05-.02.11-.09.17-.11.1-.02.2-.04.31-.06.14-.07.32-.18.47-.25.07-.03.14-.02.21-.06.4-.21.84-.44,1.27-.62.08,0,.15-.01.23-.02.09-.02.19-.09.28-.11.06,0,.13-.01.19-.02.08-.03.14-.11.21-.15.11-.06.31-.09.44-.12.05-.01.57.12.61.15.09.06.12.14.27.15.07-.06.14-.11.26-.12.12.17.48.18.72.22.06.11.07.33.23.34.2.12.41-.07.61-.02.06.01.25.11.31.15.06.08.13.16.19.25.07.05.2.03.27.07.08.05.11.17.19.23.15.1.33.12.47.23l.1.13c.17.13.35.28.48.45.04.06.06.14.11.19.04.04.1.05.13.1.06.09.08.2.15.28.05.06.13.1.17.17.14.23.04.61.12.89.02.07.09.16.12.23.02.14.04.28.06.42.07.24.19.55.27.8.01.14.03.29.04.44.03.12.12.22.15.36,0,.17,0,.33,0,.49.04.21.04.81-.03,1.02-.02.06-.09.12-.11.17-.04.11,0,.25-.05.36-.02.04-.08.09-.09.13l-.07,1.31c-.05.2-.04.51-.11.72-.02.08-.11.14-.13.21,0,.1,0,.2,0,.3-.02.06-.1.12-.13.17-.03.05-.01.1-.04.15s-.09.11-.11.15c-.05.08-.06.17-.11.25-.04.05-.38.34-.47.31-.11-.04-.1-.2-.21-.25-.07-.05-.11-.02-.19,0-.06.15,0,.32-.05.48-.03.08-.12.11-.15.17-.03.06,0,.12-.02.19-.3.17-.54-.1-.95,0-.14.03-.25.12-.36.17-.06.01-.11.03-.17.04-.08.04-.19.12-.26.17-.02.02-.02.06-.04.08-.02,0-.05.01-.08.02-.1.07-.17.19-.26.25-.05.02-.1.04-.15.06-.11.07-.18.19-.28.27-.08.06-.18.06-.26.12-.08.05-.16.13-.25.17-.11.05-.23.1-.34.13-.07,0-.14.01-.21.02-.08.03-.14.12-.21.15-.25.11-.46.18-.7.29-.06.02-.12.09-.17.11-.12.05-.24.04-.36.1-.06.03-.1.11-.17.13-.69.28-1.39.5-2.06.79-.1.05-.22.02-.34.06-.22.08-.52.21-.76.29-.1.01-.2.02-.3.04-.17.05-.42.15-.61.21-.16.06-.29.03-.47.08-.08.02-.16.08-.23.1-.17,0-.34-.01-.51-.01-.27.06-.62.09-.91.16-.18.04-.41-.04-.55-.01-.11.02-.68.08-.76.06-.1-.05-.19-.1-.29-.15-.09,0-.18,0-.27-.02-.09-.04-.17-.18-.23-.26-.04-.05-.23-.21-.29-.25-.3-.21-.66-.31-.95-.53-.1-.07-.16-.21-.25-.3-.06-.06-.16-.11-.21-.19-.17-.24-.25-.51-.4-.76-.3-.48-.63-.98-.88-1.49-.03-.05-.1-.09-.13-.13-.14-.21-.22-.42-.37-.62-.11-.15-.29-.27-.4-.43-.07-.11-.02-.26-.08-.38-.03-.06-.11-.07-.17-.11-.07-.05-.1-.15-.16-.23-.02-.02-.06-.02-.08-.04-.06-.07-.03-.17-.08-.25-.04-.08-.16-.16-.21-.24-.18-.28-.3-.55-.44-.87-.05-.11-.18-.21-.23-.32-.24-.53-.49-1.04-.66-1.65-.07-.24.02-.5-.04-.76-.04-.16-.04-.48,0-.65.05-.2-.02-.47.02-.64v-.65c.05-.16.23-.49.16-.7-.02-.06-.06-.1-.08-.17.22-.14.34-.34.41-.63,0-.06,0-.11,0-.17.01-.04.08-.1.09-.13.02-.1.02-.2.04-.3.05-.14.16-.2.23-.31.04-.07.02-.15.05-.23.05-.1.33-.29.44-.36.14-.1.24-.28.34-.42.12-.18.35-.3.47-.48.28-.39.56-.75.83-1.14.07-.1.2-.14.28-.23.07-.08.12-.19.19-.29.13-.18.35-.32.49-.5.06-.07.08-.17.15-.23l.08-.02c.23-.17.4-.42.62-.6.1-.07.2-.1.3-.17.15-.1.25-.3.4-.4.11-.08.22-.13.34-.21.04-.03.08-.1.13-.14.09-.06.19-.08.28-.13.06-.04.11-.12.17-.15.06-.01.11-.03.17-.04.03-.01.06-.06.09-.08.09-.05.18-.06.28-.1.07-.03.14-.1.21-.13.06-.01.13-.03.19-.04.06-.02.11-.11.17-.13.06-.01.13-.03.19-.04.15-.07.33-.2.47-.29.11-.07.26-.14.38-.17.06,0,.13-.01.19-.02.13-.05.29-.17.44-.23.16-.03.32-.05.48-.08.05-.02.11-.1.17-.11l.44-.06c.11-.04.24-.1.36-.14.11,0,.22-.01.32-.02.07-.03.16-.09.24-.11l.38.02c.17-.04.29-.15.45-.19.18-.05.34,0,.52-.04.21-.06.49-.1.74-.16.16,0,.32,0,.48,0,.13-.04.28-.1.44-.14.16,0,.33,0,.49,0,.06-.02.15-.06.21-.08.07-.02.16.01.21-.02M44.65,16.99c.99-.03,1.84.06,2.55.32.12.23.29.4.48.56,0,.36-.25.59-.39.82-.07.11-.06.22-.17.29-.08.05-.18.03-.28.06-.29.09-.6.17-.89.29-.17.07-.38.18-.55.25-.07.03-.12,0-.19.04-.18.09-.39.26-.59.33-.07,0-.14.02-.21.02-.06.02-.11.11-.17.13-.08.03-.14,0-.21.04-.28.15-.63.31-.93.44s-.71.22-1.02.31c-.12.01-.24.03-.36.04-.29.08-.82.17-1.2.08-.11-.02-.25-.07-.36-.09-.06-.1-.13-.23-.21-.32.06-.29.2-.51.36-.7.05-.07.16-.11.21-.19.05-.08.04-.18.11-.23.06-.01.12-.03.17-.04.05-.02.1-.07.15-.1.01-.08.03-.24.07-.3.04-.05.11-.07.15-.12.1-.09.19-.26.3-.32.03,0,.05,0,.07,0,.07-.03.12-.14.19-.17.11-.06.21-.07.32-.13.05-.03.1-.09.15-.12.17-.07.32-.1.47-.19.18-.11.28-.33.45-.44.19-.12.39-.26.59-.36.18-.09.43-.12.64-.18.09-.02.22.02.29-.02M.42,18.76c.19.01.47-.05.7,0,.2.04.46.07.68.07.3-.01.6-.02.89-.03.11.03.22.12.32.15.15.05.26-.04.42,0,.16.04.29.1.44.13.21,0,.43-.01.64-.02.15.04.31.11.44.15.11.04.21.01.31.06.05.02.11.08.17.09.12,0,.24,0,.36.01l.28.15c.11.01.22.02.32.04.31.09.79.23.8.62-.05.05-.06.14-.12.19-.12.13-.3.2-.43.32-.18.16-.28.37-.59.4-.21-.26-.42-.43-.8-.53-.19-.02-.39-.04-.59-.05-.17-.04-.28-.15-.46-.19-.13,0-.26,0-.4,0-.08-.02-.19-.06-.26-.07-.08,0-.15,0-.23,0-.17-.04-.33-.11-.48-.15-.1-.01-.2-.02-.3-.04-.11-.04-.23-.12-.34-.15-.07,0-.15-.01-.23-.02-.09-.02-.2-.09-.28-.11-.09-.01-.18-.03-.27-.04-.09-.03-.17-.1-.27-.13-.43-.14-.86-.25-1.16-.53.05-.21.27-.22.42-.34M46.28,25.19c.23,0,.48.05.68.05l.47-.04c.12.03.19.11.29.15.13.05.26.04.36.11.03.03.05.06.08.09.08.02.16.05.23.07.06.03.11.11.17.13.08.02.16.04.25.06.17.1.38.43.5.6.04.03.08.06.12.09.03.05.01.09.04.13l.08.06v.26c-.07.11-.04.26-.11.36-.04.06-.13.1-.17.17-.04.07-.02.18-.07.23-.07.02-.14.04-.21.06-.08.05-.07.19-.17.23-.16.07-.22-.09-.32-.13-.14-.05-.27.04-.4.02-.24-.03-.53-.2-.76-.18-.12.01-.19.09-.27.11-.14.05-.53-.12-.78-.05-.04.01-.12.06-.17.08-.22.06-.67-.07-.85-.07-.23,0-.38.04-.55.08-.23.06-.51-.01-.72-.01-.57,0-1.01-.02-1.44-.12h-.53c-.07-.01-.17-.05-.25-.07-.07,0-.14,0-.21,0-.08-.02-.14-.11-.21-.13-.17-.06-.29.03-.31-.19.15-.09.27-.16.43-.25.05-.03.11-.11.17-.13.11,0,.21,0,.32,0,.07-.02.11-.11.17-.13h.27c.06-.02.13-.08.19-.1.09-.01.18-.02.27-.04.26-.09.57-.16.93-.18.02-.04.23-.29.26-.3.06-.02.16.02.19.02.06,0,.08-.03.13-.04.04-.06.27-.45.3-.48.04,0,.08-.02.11-.02.06-.03.13-.12.19-.14.08,0,.17,0,.25,0,.06-.02.22-.24.28-.31.2,0,.66.02.78-.06M5.6,27.06c.52-.01.93.05,1.35.1.13.02.24-.13.36-.06.11.04.51.37.55.47,0,.08,0,.16,0,.25-.18.2-.24.54-.47.69-.12.08-.34,0-.51.04-.17.04-.36.09-.53.14-.13.01-.25.03-.38.04-.49.14-1.05.31-1.53.45-.19.06-.36.03-.57.08-.46.12-.99.2-1.52.09-.16-.04-.32.03-.42.06-.05,0-.1,0-.15,0-.31.09-.72.28-1.08.16-.22-.07-.43-.05-.44-.34.22-.18-.02-.32.07-.49.04-.12.33-.41.43-.48.07-.04.15-.03.21-.08.02-.02.01-.06.04-.07.15-.1.33-.12.51-.19.11-.05.23-.13.36-.18l.4-.04c.05-.02.12-.08.17-.1.2-.02.39-.04.59-.06.45-.15,1.08-.2,1.53-.31.3-.07.57-.07.85-.14.06-.01.13,0,.17-.02M27.79,30.28c.08.02.1.03.11.12-.03.01-.07.02-.13.02-.02-.04-.03-.03-.04-.1.03-.01.04-.02.06-.04M10.45,33.65c.35,0,.85.34.86.66-.03.03-.04.09-.08.11-.03.02-.06.01-.08.04-.05.08-.04.17-.08.27-.02.05-.29.52-.32.53-.14.1-.3.12-.45.21-.08.05-.21.19-.3.25-.03,0-.06.01-.09.02-.67.51-1.34,1.04-2.06,1.5-.34.22-.75.34-1.12.54-.41.22-.87.38-1.36.52-.25.07-.55.03-.69-.11-.11-.11-.11-.29-.08-.46.03-.16-.01-.29.03-.42.07-.21.26-.42.39-.59.09-.12.25-.22.36-.32.11-.12.19-.3.32-.4.22-.17.44-.34.66-.52.07-.05.12-.15.19-.21.11-.08.23-.12.34-.19.11-.08.21-.21.32-.29.06-.04.13-.04.19-.08.03-.04.06-.08.09-.11.27-.19.54-.33.83-.5.07-.04.13-.13.21-.15.09,0,.18-.02.27-.02.13-.05.26-.12.44-.16.21,0,.43,0,.65,0,.08-.02.19-.06.26-.08.11-.03.21.01.29-.04M40.34,34.9c.19,0,.35.09.49.13.12,0,.24-.01.36-.02.07.02.2.06.28.08.24.05.46-.12.72-.04.08.02.17.09.25.11.09.01.18.02.27.03.07.03.15.11.21.13.06.02.16-.02.19-.02.08-.02.29.03.36.05.11.04.17.17.29.21.19.06.39.03.59.07.17.34.7.44.4,1-.05.09-.17.13-.23.21-.08.11-.1.3-.28.33-.07.04-.23-.03-.32-.06-.16-.04-.38-.05-.55-.09-.22,0-.44,0-.66,0-.12-.05-.24-.1-.36-.15l-.4.02c-.07-.01-.16-.07-.23-.09l-.49-.03c-.06-.03-.11-.12-.17-.15-.08-.02-.15-.05-.23-.07-.07-.04-.12-.15-.19-.19-.11-.06-.35-.03-.48-.07-.32-.12-.64-.24-.93-.37-.12-.05-.24-.07-.32-.15-.06-.06-.09-.15-.15-.21,0-.23.17-.52.34-.55.12-.08.3.04.46,0,.04-.01.13-.07.17-.08l.04.02s.01,0,.02,0c.03.08.08.1.13.15.2,0,.34-.09.43-.19M33.3,43.93c.3,0,.45.04.64.09.19.05.34-.01.49.05.05.02.12.08.17.1.23.07.48.02.69.09.49.18.92.49,1.22.86.09.12.25.18.32.32l.06.17c.08.11.23.2.27.34,0,.08-.01.15-.02.23,0,.09.01.19.02.28-.07.27-.3.51-.47.69-.1.11-.15.24-.36.25-.15-.21-.38-.29-.61-.43-.04-.03-.09-.09-.13-.11-.08-.04-.17-.03-.25-.07-.11-.07-.26-.17-.38-.24-.07-.04-.16-.04-.23-.09-.08-.06-.07-.2-.14-.28-.06-.09-.24-.06-.3-.15-.04-.05-.02-.13-.06-.19-.04-.06-.14-.07-.19-.11-.05-.04-.05-.11-.1-.15-.09-.08-.23-.09-.31-.19-.06-.08-.09-.23-.17-.28-.05-.03-.09-.01-.15-.04-.06-.02-.11-.11-.17-.13-.03,0-.06,0-.1,0-.1-.04-.21-.15-.3-.21-.32-.17-.49-.24-.74-.47,0-.06,0-.09.02-.13.07-.04.16-.13.3-.1.07.02.19.06.3.04.1-.03.24-.06.34-.08.11-.03.24.01.32-.04M15.98,44.66c.49-.01.94.03,1.31.12.1,0,.2,0,.3,0,.16.03.36.05.44.17.05.06.02.1.06.19.02.05.08.11.1.19.02.08-.04.21-.02.32.04.21-.16.48-.22.67,0,.06-.01.13-.02.19-.02.07-.09.15-.11.21-.04.09,0,.16-.04.26-.05.1-.1.21-.15.31-.05.14-.02.29-.07.43-.02.04-.07.08-.09.12-.12.18-.09.46-.18.67-.02.05-.09.1-.11.15-.03.09,0,.17-.06.25-.04.05-.12.11-.15.17-.02.11-.05.23-.08.34-.08.18-.22.35-.32.51-.03.12-.06.24-.09.36-.03.06-.11.1-.15.15-.1.14-.18.3-.28.44-.03.04-.09.04-.11.07-.07.08-.1.27-.17.36-.05.08-.16.11-.23.17-.06.06-.1.17-.17.23-.03,0-.05.01-.08.02-.05.07-.02.22-.07.28-.1.14-.39.24-.47.37,0,.03-.01.06-.02.09-.12.19-.59.5-.79.63-.1.06-.22.07-.32.14-.05.03-.1.11-.17.13-.1,0-.19.01-.28.02-.03,0-.09.05-.11.06-.17.05-.33-.04-.46-.07-.07-.12-.17-.29-.21-.44,0-.08,0-.16,0-.25-.01-.05-.07-.15-.04-.25.05-.17.28-.44.36-.61.07-.16,0-.38.07-.51.1-.17.38-.35.45-.53.07-.19-.08-.38,0-.57.06-.16.2-.32.26-.46.03-.06,0-.1.04-.15.03-.04.09-.08.11-.13.06-.15-.01-.28.07-.42.06-.09.21-.14.25-.25.05-.15-.02-.32.03-.46.06-.16.17-.35.24-.5.03-.05,0-.1.04-.15.03-.06.1-.11.13-.17.01-.06.02-.11.04-.17.04-.08.12-.16.15-.25.09-.27.06-.55.15-.82.03-.08.1-.15.13-.23.05-.15.02-.29.07-.44.02-.07.11-.15.13-.21.06-.14.03-.36.05-.5.17-.09.42-.15.62-.23.08-.03.18-.01.25-.06M23.62,54.13s0-.04,0-.06c-.15-.05-.15-.2-.23-.32-.09-.13-.21-.29-.27-.45-.03-.08,0-.12-.04-.19-.02-.05-.08-.09-.1-.15,0-.14-.01-.29-.02-.43-.02-.09-.09-.17-.12-.27-.04-.16-.03-.73,0-.85,0-.22,0-.43,0-.65.02-.1.09-.18.11-.27,0-.31,0-.62.01-.93-.01-.07-.04-.23-.02-.32.02-.1.01-.25.05-.34.02-.04.08-.09.09-.14.08-.22.03-.46.21-.59.15-.11.42-.13.63-.18.09,0,.19,0,.29,0,.07-.02.67-.16.68-.16.16.04.09.22.13.38.02.07.09.13.11.19.04.1,0,.19.04.3.03.09.09.19.11.28.05.18.02.33.06.51.25.95.11,2.28-.2,3.02-.02.04-.12.23-.15.27-.02.02-.06.02-.08.04-.03.05-.01.1-.04.15-.03.07-.23.34-.28.4-.05.05-.12.07-.17.11-.16.15-.55.63-.81.63"/>
    </g>
  </g>
</svg>